# xmcd
#
# Track frame offsets:
#	150
#	13629
#	27233
#	40294
#	52818
#	66506
#	80020
#	92482
#	104818
#	118130
#	129428
#	142259
#	155577
#	167927
#	179845
#	207869
#	223605
#	235872
#	247749
#	264021
#	282766
#	295639
#	309863
#	323523
#
# Disc length: 4490 seconds
#
# Revision: 0
# Processed by: cddbd v1.5.2PL0 Copyright (c) Steve Scherf et al.
# Submitted via: EZCDAudioConverter 1.0.8.1
#
DISCID=58118818
DTITLE=B. B. King - The Vintage Years - 1 CD
DYEAR=2002
DGENRE=Blues
TTITLE0=3 O'Clock Blues
TTITLE1=You Know I Love You
TTITLE2=Woke Up This Morning\n
TTITLE3=Please Love Me
TTITLE4=Blind Love\n
TTITLE5=You Upset Me Baby\n
TTITLE6=Every Day I Have The Blues\n
TTITLE7=Ten Long Years
TTITLE8=Crying Won`t Help You
TTITLE9=Did You Ever Love A Woman
TTITLE10=Bad Luck
TTITLE11=Sweet Little Angel
TTITLE12=Why I Sing The Blues
TTITLE13=Worry Worry
TTITLE14=Sweet Sixteen
TTITLE15=My Own Fault
TTITLE16=Good Man Gone Bad
TTITLE17=I'll Survive
TTITLE18=Walking Dr. Bill
TTITLE19=You're Breaking My Heart
TTITLE20=Gonna Miss You Around Here
TTITLE21=Downhearted
TTITLE22=Ain't Nobody's Business
TTITLE23=Rock Me Baby
EXTD=
EXTT0=
EXTT1=
EXTT2=
EXTT3=
EXTT4=
EXTT5=
EXTT6=
EXTT7=
EXTT8=
EXTT9=
EXTT10=
EXTT11=
EXTT12=
EXTT13=
EXTT14=
EXTT15=
EXTT16=
EXTT17=
EXTT18=
EXTT19=
EXTT20=
EXTT21=
EXTT22=
EXTT23=
PLAYORDER=
